<svg id="Layer_1" data-name="Layer 1" xmlns="http://www.w3.org/2000/svg" xmlns:xlink="http://www.w3.org/1999/xlink" viewBox="0 0 1600 400"><defs><style>.cls-1,.cls-2{fill:#f02e65;}.cls-1{fill-rule:evenodd;}</style></defs><path class="cls-1" d="M617.89,258.91a106.1,106.1,0,0,1-53.41-14.33,106.61,106.61,0,1,1,0-184.49,106.58,106.58,0,1,1,53.4,198.82ZM546.64,73.08l0,0a86.92,86.92,0,1,0,40.62,37.5A86.83,86.83,0,0,0,546.67,73.06ZM432.75,299.64a16.54,16.54,0,0,0-10.07-3.06,18.55,18.55,0,0,0-9.46,2.39,16.36,16.36,0,0,0-6.44,6.9,25.48,25.48,0,0,0,0,21.2,16.5,16.5,0,0,0,6.47,6.93,18.37,18.37,0,0,0,9.43,2.42,16.54,16.54,0,0,0,10.07-3.06,15.43,15.43,0,0,0,5.72-8.11v10.67h4.91V297.08h-4.91v10.67A15.47,15.47,0,0,0,432.75,299.64Zm-19.29,5.51A13.83,13.83,0,0,1,424,301a14.51,14.51,0,0,1,7.43,1.92,13.59,13.59,0,0,1,5.2,5.45,18.58,18.58,0,0,1,0,16.29,13.5,13.5,0,0,1-5.2,5.44A14.51,14.51,0,0,1,424,332a13.83,13.83,0,0,1-10.5-4.16q-3.94-4.17-3.94-11.35T413.46,305.15ZM484.39,299a18.35,18.35,0,0,0-9.42-2.39,16.51,16.51,0,0,0-10.11,3.06,15.51,15.51,0,0,0-5.68,8.11V297.08h-5v57.2h5v-29a15.47,15.47,0,0,0,5.68,8.11A16.51,16.51,0,0,0,475,336.42a18.14,18.14,0,0,0,9.39-2.42,16.56,16.56,0,0,0,6.44-6.93,25.48,25.48,0,0,0,0-21.2A16.42,16.42,0,0,0,484.39,299Zm-18.21,3.94a14.57,14.57,0,0,1,7.44-1.92q6.61,0,10.53,4.16t3.91,11.35q0,7.19-3.91,11.35T473.62,332a14.57,14.57,0,0,1-7.44-1.92,13.26,13.26,0,0,1-5.15-5.44,18.86,18.86,0,0,1,0-16.29A13.35,13.35,0,0,1,466.18,302.91ZM532.27,299a18.35,18.35,0,0,0-9.42-2.39,16.51,16.51,0,0,0-10.11,3.06,15.51,15.51,0,0,0-5.68,8.11V297.08h-5v57.2h5v-29a15.47,15.47,0,0,0,5.68,8.11,16.51,16.51,0,0,0,10.11,3.06,18.14,18.14,0,0,0,9.39-2.42,16.56,16.56,0,0,0,6.44-6.93,25.48,25.48,0,0,0,0-21.2A16.42,16.42,0,0,0,532.27,299Zm-18.21,3.94A14.57,14.57,0,0,1,521.5,301q6.62,0,10.53,4.16t3.91,11.35q0,7.19-3.91,11.35T521.5,332a14.57,14.57,0,0,1-7.44-1.92,13.35,13.35,0,0,1-5.16-5.44,18.95,18.95,0,0,1,0-16.29A13.43,13.43,0,0,1,514.06,302.91Zm91.46-6.4h-9.4L589.65,327l-8.82-30.45h-10.6L561.48,327l-6.4-30.45H545l10.53,39.41h11.1l8.68-28.66,8.47,28.66h11.1Zm20.84,1.6a16.52,16.52,0,0,0-5.83,5.94v-7.54h-10v39.41h10v-19q0-10.24,11-10.24h2.92V295.94A15.56,15.56,0,0,0,626.36,298.11Zm14.23-16.86a5.06,5.06,0,0,0-1.71,3.95,5,5,0,0,0,1.71,3.88,7.32,7.32,0,0,0,9,0,5,5,0,0,0,1.71-3.88,5.06,5.06,0,0,0-1.71-3.95,7.32,7.32,0,0,0-9,0Zm9.46,15.26H640v39.41h10Zm30.16,30.8H676.3a5.31,5.31,0,0,1-3.84-1.13q-1.14-1.14-1.14-4V305h8.82v-8.47h-8.82v-9.75h-10v9.75h-5.48V305h5.48v17.07q0,7.47,3.52,10.67t10.14,3.2h5.26Zm43.9-9.17a18.79,18.79,0,0,0,.36-3.42,19.33,19.33,0,0,0-2.39-9.64,17.14,17.14,0,0,0-6.75-6.65A20.83,20.83,0,0,0,705.12,296a21.26,21.26,0,0,0-10.25,2.42,17,17,0,0,0-7,7,24.49,24.49,0,0,0,0,21.52,17.24,17.24,0,0,0,7,7,22.58,22.58,0,0,0,19.18.6,17.55,17.55,0,0,0,6.58-5.12,17,17,0,0,0,3.34-7.4h-10.6a7.54,7.54,0,0,1-3,4.62,9.47,9.47,0,0,1-5.79,1.71,9.17,9.17,0,0,1-6.55-2.49q-2.62-2.49-2.84-7.75ZM711.84,306.4q2.74,2.49,2.52,7.33H695.23c.19-3.23,1.2-5.67,3.06-7.33a9.84,9.84,0,0,1,6.83-2.49A9.64,9.64,0,0,1,711.84,306.4Z"/><path class="cls-2" d="M514,115.46c-.13.32-1.75,6.72-3.51,14.31s-4.71,19.57-6.33,26.66c-3.14,13-5,21.52-5,22.65,0,.31,1.95.57,4.33.57h4.33l1.94-8.66c1.14-4.71,3.65-15.5,5.65-24s4.46-18.76,5.4-22.9,1.88-7.9,2.07-8.34-.88-.75-4.14-.75C516.21,115,514.08,115.22,514,115.46Zm-33.69,27.17-5.77,6.27,1.7,2c.93,1.13,3.51,4,5.7,6.28l4,4.26h11.42l-5.4-5.84c-2.95-3.13-5.39-6.14-5.39-6.52s2.26-3.26,5-6.27,5-5.71,5-6-2.38-.44-5.26-.44H486.1Zm43.92-5.9a15.55,15.55,0,0,0,2.38,2.7c4.9,4.89,8.35,9,8.16,9.85a48.7,48.7,0,0,1-5.4,6.46l-5.2,5.71H530l5.84-.06,5.33-5.84c3-3.26,5.33-6.15,5.33-6.52s-2.51-3.26-5.65-6.59l-5.64-6.08H529.7C526.62,136.36,524.18,136.54,524.18,136.73Z"/><image width="1280" height="905" transform="translate(685.41 19.66) scale(0.4)" xlink:href="reactlogo.png"/></svg>