<svg id="Layer_1" data-name="Layer 1" xmlns="http://www.w3.org/2000/svg" viewBox="0 0 1600 400"><path d="M968.2,216a112,112,0,0,1-186.82,83.42,91.38,91.38,0,0,0-.12-166.73A112,112,0,0,1,968.2,216Z"/><path d="M811.38,126.61c-68.8-52-168.09-10-178.72,75.56a112,112,0,0,0,43.75,103.28c68.85,51.95,168.11,9.9,178.68-75.69A112,112,0,0,0,811.38,126.6Zm-12.46,16.5c56.13,42.36,45.36,129.6-19.39,157a91.35,91.35,0,0,1-90.66-11.2c-56.13-42.35-45.36-129.59,19.39-157A91.37,91.37,0,0,1,798.92,143.11Z"/><path d="M746.9,177.27c-.13.33-1.85,7.06-3.69,15s-5,20.57-6.66,28c-3.3,13.66-5.28,22.62-5.28,23.81,0,.33,2.05.6,4.55.6h4.55l2-9.11c1.19-4.94,3.83-16.29,5.94-25.19S753,190.72,754,186.37s2-8.31,2.18-8.77-.92-.79-4.35-.79C749.27,176.81,747,177,746.9,177.27Zm-35.42,28.55-6.06,6.6,1.78,2.11c1,1.19,3.69,4.15,6,6.6l4.22,4.48h12l-5.68-6.13c-3.1-3.3-5.67-6.47-5.67-6.86s2.37-3.43,5.28-6.6,5.27-6,5.27-6.33-2.5-.46-5.53-.46h-5.48Zm46.17-6.19a17.09,17.09,0,0,0,2.51,2.83c5.14,5.14,8.77,9.5,8.57,10.35a50.49,50.49,0,0,1-5.67,6.8l-5.47,6h6.13l6.13-.07,5.6-6.13c3.11-3.43,5.61-6.47,5.61-6.86s-2.63-3.43-5.93-6.92l-5.93-6.4h-5.75C760.22,199.23,757.65,199.43,757.65,199.63Z"/></svg>