<svg id="Layer_1" data-name="Layer 1" xmlns="http://www.w3.org/2000/svg" viewBox="0 0 1600 400"><path d="M368.38,202.21a99.58,99.58,0,0,1-166.06,74.15,81.23,81.23,0,0,0-.11-148.21,99.59,99.59,0,0,1,166.17,74.06Z"/><path d="M229,122.72C167.82,76.5,79.56,113.82,70.11,189.9A99.59,99.59,0,0,0,109,281.7c61.2,46.18,149.43,8.8,158.83-67.29A99.58,99.58,0,0,0,229,122.72Zm-11.08,14.67c49.9,37.66,40.32,115.2-17.24,139.59a81.21,81.21,0,0,1-80.59-10c-49.89-37.66-40.32-115.2,17.24-139.59A81.23,81.23,0,0,1,217.91,137.39Z"/><path d="M483,129.12q20.49,0,34.95,10.62a53.71,53.71,0,0,1,19.87,28.15v-37h17.05V265.7H537.8v-37a53.69,53.69,0,0,1-19.87,28.16Q503.47,267.43,483,267.43q-18.28,0-32.73-8.4A57.3,57.3,0,0,1,427.78,235q-8-15.69-8-36.68,0-21.24,8-36.93a56.76,56.76,0,0,1,22.35-23.94Q464.46,129.12,483,129.12Zm4.44,15.31q-22.73,0-36.43,14.45t-13.7,39.39q0,24.94,13.7,39.39t36.43,14.45a50.36,50.36,0,0,0,25.8-6.67,46.94,46.94,0,0,0,18-18.89q6.54-12.23,6.54-28.28T531.26,170a47,47,0,0,0-18-18.9A50.36,50.36,0,0,0,487.42,144.43ZM664.5,129.12q18.53,0,32.73,8.28a57,57,0,0,1,22.23,23.94q8,15.69,8,36.93,0,21-8,36.68A57.56,57.56,0,0,1,697.1,259q-14.33,8.4-32.6,8.4-20.75,0-35.07-10.62a53.93,53.93,0,0,1-19.75-28.16V329.42h-17.3V130.84h17.3v37a53.94,53.94,0,0,1,19.75-28.15Q643.76,129.12,664.5,129.12Zm-4.69,15.31A50.48,50.48,0,0,0,634,151.1,46.16,46.16,0,0,0,616.1,170q-6.42,12.21-6.42,28.27t6.42,28.28A46.08,46.08,0,0,0,634,245.44a50.48,50.48,0,0,0,25.82,6.67q23,0,36.56-14.45t13.57-39.39q0-24.95-13.57-39.39T659.81,144.43Zm170.9-15.31q18.52,0,32.73,8.28a57,57,0,0,1,22.23,23.94q8,15.69,8,36.93,0,21-8,36.68A57.54,57.54,0,0,1,863.32,259q-14.33,8.4-32.61,8.4-20.75,0-35.06-10.62a53.82,53.82,0,0,1-19.75-28.16V329.42H758.6V130.84h17.3v37a53.83,53.83,0,0,1,19.75-28.15Q810,129.12,830.71,129.12ZM826,144.43a50.46,50.46,0,0,0-25.82,6.67A46.16,46.16,0,0,0,782.32,170q-6.42,12.21-6.42,28.27t6.42,28.28a46.08,46.08,0,0,0,17.89,18.89A50.46,50.46,0,0,0,826,252.11q23,0,36.55-14.45t13.58-39.39q0-24.95-13.58-39.39T826,144.43Zm259.07-15.55h32.61l-36.8,136.82h-38.54L1013,166.17,982.85,265.7H944.33L907.78,128.88H942.6l22.23,105.7,30.37-105.7H1032l30.63,105.7Zm84.72,26.17a57.18,57.18,0,0,1,20.24-20.62,53.87,53.87,0,0,1,28.16-7.53v37.29H1208.1q-38.28,0-38.28,35.56V265.7H1135V128.88h34.82Zm63.72-65.46a17.53,17.53,0,0,1,5.93-13.69q5.92-5.31,15.55-5.32t15.56,5.32a17.5,17.5,0,0,1,5.94,13.69,17.28,17.28,0,0,1-5.94,13.47q-5.92,5.32-15.56,5.32t-15.55-5.32A17.3,17.3,0,0,1,1233.54,89.59Zm4,39.29h34.83V265.7h-34.83Zm126,106.93H1377V265.7h-18.28q-23,0-35.19-11.11t-12.23-37.05V158.26h-19V128.88h19V95h34.82v33.85h30.63v29.38h-30.63V218q0,9.89,4,13.84T1363.45,235.81Zm167.2-43.72a66.16,66.16,0,0,1-1.23,11.86H1429.14q.73,18.28,9.89,26.92t22.72,8.64q12.09,0,20.11-5.93a26.19,26.19,0,0,0,10.25-16h36.8a58.76,58.76,0,0,1-11.59,25.68A60.74,60.74,0,0,1,1494.47,261a73.25,73.25,0,0,1-31,6.42q-20,0-35.58-8.52a59.91,59.91,0,0,1-24.19-24.33q-8.65-15.81-8.65-37.29t8.65-37.42a59,59,0,0,1,24.19-24.33q15.57-8.39,35.58-8.39,20.24,0,35.44,8.39a59.2,59.2,0,0,1,23.45,23.09Q1530.65,173.33,1530.65,192.09Zm-35.07-3.44q.74-16.82-8.77-25.45t-23.33-8.64q-14.09,0-23.72,8.64t-10.62,25.45Z"/><path d="M171.67,167.76c-.12.29-1.65,6.27-3.28,13.36S164,199.41,162.46,206c-2.93,12.13-4.69,20.11-4.69,21.16,0,.29,1.82.53,4,.53h4l1.82-8.09c1.06-4.4,3.4-14.48,5.28-22.4s4.16-17.53,5-21.4,1.76-7.38,1.93-7.79-.82-.7-3.87-.7C173.78,167.35,171.78,167.52,171.67,167.76Zm-31.49,25.38L134.79,199l1.59,1.88c.87,1.05,3.28,3.69,5.33,5.86l3.75,4h10.67l-5-5.46c-2.76-2.92-5-5.74-5-6.09s2.11-3.05,4.69-5.86a46.68,46.68,0,0,0,4.69-5.63c0-.24-2.23-.41-4.92-.41h-4.87Zm41-5.51a14.67,14.67,0,0,0,2.23,2.52c4.57,4.57,7.8,8.44,7.62,9.2a43.73,43.73,0,0,1-5,6l-4.87,5.34h5.46l5.45-.06,5-5.46c2.76-3,5-5.74,5-6.09s-2.35-3.05-5.28-6.16l-5.27-5.68h-5.11C183.51,187.28,181.22,187.45,181.22,187.63Z"/></svg>